# xmcd
#
# Track frame offsets: 
#        150
#        18405
#        33100
#        46326
#        66350
#        82076
#        97552
#        117054
#        130161
#        149350
#        166240
#        185115
#
# Disc length: 2706 seconds
#
# Revision: 3
# Processed by: cddbd v1.5.2PL0 Copyright (c) Steve Scherf et al.
# Submitted via: ExactAudioCopy v1.1
#
DISCID=990a900c
DTITLE=Freddie King - Getting Ready...
DYEAR=1970
DGENRE=Blues
TTITLE0=Same Old Blues
TTITLE1=Dust My Broom
TTITLE2=Worried Life Blues
TTITLE3=Five Long Years
TTITLE4=Key To The Highway
TTITLE5=Going Down
TTITLE6=Living On The Highway
TTITLE7=Walking By Myself
TTITLE8=Tore Down
TTITLE9=Palace Of The King
TTITLE10=Gimme Some Lovin' (Prev. Unreleased)
TTITLE11=Send Me Someone To Love (Prev. Unreleased)
EXTD=
EXTT0=
EXTT1=
EXTT2=
EXTT3=
EXTT4=
EXTT5=
EXTT6=
EXTT7=
EXTT8=
EXTT9=
EXTT10=
EXTT11=
PLAYORDER=
